<mxfile>
    <diagram id="QwPQAH91NwCHGxsAPeSV" name="ページ1">
        <mxGraphModel dx="593" dy="798" grid="1" gridSize="10" guides="1" tooltips="1" connect="1" arrows="1" fold="1" page="1" pageScale="1" pageWidth="827" pageHeight="1169" math="0" shadow="0">
            <root>
                <mxCell id="0"/>
                <mxCell id="1" parent="0"/>
                <mxCell id="26" value="" style="endArrow=classic;html=1;exitX=0.5;exitY=1;exitDx=0;exitDy=0;entryX=0.5;entryY=0;entryDx=0;entryDy=0;" edge="1" parent="1" source="2" target="24">
                    <mxGeometry width="50" height="50" relative="1" as="geometry">
                        <mxPoint x="30" y="310" as="sourcePoint"/>
                        <mxPoint x="80" y="260" as="targetPoint"/>
                    </mxGeometry>
                </mxCell>
                <mxCell id="20" value="" style="endArrow=classic;html=1;exitX=0.5;exitY=1;exitDx=0;exitDy=0;entryX=0.492;entryY=0;entryDx=0;entryDy=0;entryPerimeter=0;" edge="1" parent="1" source="7" target="19">
                    <mxGeometry width="50" height="50" relative="1" as="geometry">
                        <mxPoint x="100" y="1040" as="sourcePoint"/>
                        <mxPoint x="150" y="990" as="targetPoint"/>
                    </mxGeometry>
                </mxCell>
                <mxCell id="2" value="start" style="rounded=1;whiteSpace=wrap;html=1;" parent="1" vertex="1">
                    <mxGeometry x="80" y="20" width="120" height="60" as="geometry"/>
                </mxCell>
                <mxCell id="3" value="import itertools" style="rounded=0;whiteSpace=wrap;html=1;" parent="1" vertex="1">
                    <mxGeometry x="80" y="190" width="120" height="60" as="geometry"/>
                </mxCell>
                <mxCell id="4" value="mysum(left, right, data)" style="rounded=1;whiteSpace=wrap;html=1;" parent="1" vertex="1">
                    <mxGeometry x="260" y="20" width="120" height="60" as="geometry"/>
                </mxCell>
                <mxCell id="5" value="return sum(data[left:right])" style="rounded=1;whiteSpace=wrap;html=1;" vertex="1" parent="1">
                    <mxGeometry x="260" y="110" width="120" height="60" as="geometry"/>
                </mxCell>
                <mxCell id="6" value="" style="endArrow=classic;html=1;exitX=0.5;exitY=1;exitDx=0;exitDy=0;entryX=0.5;entryY=0;entryDx=0;entryDy=0;" edge="1" parent="1" source="4" target="5">
                    <mxGeometry width="50" height="50" relative="1" as="geometry">
                        <mxPoint x="470" y="160" as="sourcePoint"/>
                        <mxPoint x="520" y="110" as="targetPoint"/>
                    </mxGeometry>
                </mxCell>
                <mxCell id="7" value="main(data)" style="rounded=1;whiteSpace=wrap;html=1;" vertex="1" parent="1">
                    <mxGeometry x="260" y="200" width="120" height="60" as="geometry"/>
                </mxCell>
                <mxCell id="8" value="l = LinkedList()&lt;br&gt;n = int(input())" style="rounded=0;whiteSpace=wrap;html=1;" vertex="1" parent="1">
                    <mxGeometry x="260" y="290" width="120" height="60" as="geometry"/>
                </mxCell>
                <mxCell id="9" value="total&amp;nbsp; = sum(data)&lt;br&gt;max_d = 0" style="rounded=0;whiteSpace=wrap;html=1;" vertex="1" parent="1">
                    <mxGeometry x="260" y="380" width="120" height="60" as="geometry"/>
                </mxCell>
                <mxCell id="10" value="for x i n itertools.combinations(list(range(len(data))),n)" style="shape=loopLimit;whiteSpace=wrap;html=1;" vertex="1" parent="1">
                    <mxGeometry x="190" y="460" width="260" height="80" as="geometry"/>
                </mxCell>
                <mxCell id="11" value="x = list(x)" style="rounded=0;whiteSpace=wrap;html=1;" vertex="1" parent="1">
                    <mxGeometry x="260" y="555" width="120" height="60" as="geometry"/>
                </mxCell>
                <mxCell id="12" value="min_d = total - mysum(x[0]-x[-1], data)" style="rounded=0;whiteSpace=wrap;html=1;" vertex="1" parent="1">
                    <mxGeometry x="260" y="650" width="120" height="60" as="geometry"/>
                </mxCell>
                <mxCell id="13" value="for i in range(len(x) -1)" style="shape=loopLimit;whiteSpace=wrap;html=1;" vertex="1" parent="1">
                    <mxGeometry x="245" y="730" width="150" height="70" as="geometry"/>
                </mxCell>
                <mxCell id="14" value="min_d = min(min_d, mysum(x[i], x[i+1], data)])" style="rounded=0;whiteSpace=wrap;html=1;" vertex="1" parent="1">
                    <mxGeometry x="260" y="820" width="120" height="60" as="geometry"/>
                </mxCell>
                <mxCell id="15" value="endfor" style="shape=loopLimit;whiteSpace=wrap;html=1;direction=west;" vertex="1" parent="1">
                    <mxGeometry x="250" y="910" width="140" height="60" as="geometry"/>
                </mxCell>
                <mxCell id="21" value="" style="edgeStyle=orthogonalEdgeStyle;rounded=0;orthogonalLoop=1;jettySize=auto;html=1;" edge="1" parent="1" source="16" target="15">
                    <mxGeometry relative="1" as="geometry"/>
                </mxCell>
                <mxCell id="16" value="l.insert(x, min_d)" style="rounded=0;whiteSpace=wrap;html=1;" vertex="1" parent="1">
                    <mxGeometry x="260" y="1000" width="120" height="70" as="geometry"/>
                </mxCell>
                <mxCell id="17" value="endfor" style="shape=loopLimit;whiteSpace=wrap;html=1;direction=west;" vertex="1" parent="1">
                    <mxGeometry x="245" y="1080" width="150" height="80" as="geometry"/>
                </mxCell>
                <mxCell id="18" value="l.index(max_d)&lt;br&gt;print(max_d)" style="rounded=0;whiteSpace=wrap;html=1;" vertex="1" parent="1">
                    <mxGeometry x="260" y="1169" width="120" height="60" as="geometry"/>
                </mxCell>
                <mxCell id="19" value="end" style="rounded=1;whiteSpace=wrap;html=1;" vertex="1" parent="1">
                    <mxGeometry x="260" y="1250" width="120" height="60" as="geometry"/>
                </mxCell>
                <mxCell id="22" value="" style="endArrow=classic;html=1;exitX=1;exitY=0.5;exitDx=0;exitDy=0;" edge="1" parent="1" source="14">
                    <mxGeometry width="50" height="50" relative="1" as="geometry">
                        <mxPoint x="410" y="910" as="sourcePoint"/>
                        <mxPoint x="390" y="770" as="targetPoint"/>
                        <Array as="points">
                            <mxPoint x="440" y="850"/>
                            <mxPoint x="440" y="770"/>
                        </Array>
                    </mxGeometry>
                </mxCell>
                <mxCell id="23" value="" style="endArrow=classic;html=1;exitX=1.008;exitY=0.629;exitDx=0;exitDy=0;exitPerimeter=0;entryX=1;entryY=0.5;entryDx=0;entryDy=0;" edge="1" parent="1" source="16" target="10">
                    <mxGeometry width="50" height="50" relative="1" as="geometry">
                        <mxPoint x="410" y="1060" as="sourcePoint"/>
                        <mxPoint x="460" y="1010" as="targetPoint"/>
                        <Array as="points">
                            <mxPoint x="490" y="1044"/>
                            <mxPoint x="490" y="500"/>
                        </Array>
                    </mxGeometry>
                </mxCell>
                <mxCell id="24" value="main(d)" style="rounded=0;whiteSpace=wrap;html=1;" vertex="1" parent="1">
                    <mxGeometry x="80" y="280" width="120" height="60" as="geometry"/>
                </mxCell>
                <mxCell id="25" value="d = d0, d1, d2など、いずれか" style="rounded=0;whiteSpace=wrap;html=1;" vertex="1" parent="1">
                    <mxGeometry x="80" y="100" width="120" height="60" as="geometry"/>
                </mxCell>
            </root>
        </mxGraphModel>
    </diagram>
</mxfile>
